<?xml version="1.0" encoding="utf-8" standalone="no"?>
<!DOCTYPE svg PUBLIC "-//W3C//DTD SVG 1.1//EN"
  "http://www.w3.org/Graphics/SVG/1.1/DTD/svg11.dtd">
<svg xmlns:xlink="http://www.w3.org/1999/xlink" width="826.38pt" height="471.888pt" viewBox="0 0 826.38 471.888" xmlns="http://www.w3.org/2000/svg" version="1.1">
 <metadata>
  <rdf:RDF xmlns:dc="http://purl.org/dc/elements/1.1/" xmlns:cc="http://creativecommons.org/ns#" xmlns:rdf="http://www.w3.org/1999/02/22-rdf-syntax-ns#">
   <cc:Work>
    <dc:type rdf:resource="http://purl.org/dc/dcmitype/StillImage"/>
    <dc:date>2026-09-19T10:33:29.573009</dc:date>
    <dc:format>image/svg+xml</dc:format>
    <dc:creator>
     <cc:Agent>
      <dc:title>Matplotlib v3.5.1, https://matplotlib.org/</dc:title>
     </cc:Agent>
    </dc:creator>
   </cc:Work>
  </rdf:RDF>
 </metadata>
 <defs>
  <style type="text/css">*{stroke-linejoin: round; stroke-linecap: butt}</style>
 </defs>
 <g id="figure_1">
  <g id="patch_1">
   <path d="M 0 471.888 
L 826.38 471.888 
L 826.38 0 
L 0 0 
z
" style="fill: #101017"/>
  </g>
  <g id="axes_1">
   <g id="patch_2">
    <path d="M 52.3314 220.487328 
L 264.3156 220.487328 
Q 280.4976 220.487328 280.4976 211.395168 
L 280.4976 92.287872 
Q 280.4976 83.195712 264.3156 83.195712 
L 52.3314 83.195712 
Q 36.1494 83.195712 36.1494 92.287872 
L 36.1494 211.395168 
Q 36.1494 220.487328 52.3314 220.487328 
z
" clip-path="url(#pb0a18eb905)" style="fill: #211d31; stroke: #9d7bff; stroke-width: 1.4; stroke-linejoin: miter"/>
   </g>
   <g id="patch_3">
    <path d="M 311.2434 220.487328 
L 523.2276 220.487328 
Q 539.4096 220.487328 539.4096 211.395168 
L 539.4096 92.287872 
Q 539.4096 83.195712 523.2276 83.195712 
L 311.2434 83.195712 
Q 295.0614 83.195712 295.0614 92.287872 
L 295.0614 211.395168 
Q 295.0614 220.487328 311.2434 220.487328 
z
" clip-path="url(#pb0a18eb905)" style="fill: #211d31; stroke: #9d7bff; stroke-width: 1.4; stroke-linejoin: miter"/>
   </g>
   <g id="patch_4">
    <path d="M 570.1554 220.487328 
L 782.1396 220.487328 
Q 798.3216 220.487328 798.3216 211.395168 
L 798.3216 92.287872 
Q 798.3216 83.195712 782.1396 83.195712 
L 570.1554 83.195712 
Q 553.9734 83.195712 553.9734 92.287872 
L 553.9734 211.395168 
Q 553.9734 220.487328 570.1554 220.487328 
z
" clip-path="url(#pb0a18eb905)" style="fill: #211d31; stroke: #9d7bff; stroke-width: 1.4; stroke-linejoin: miter"/>
   </g>
   <g id="patch_5">
    <path d="M 181.7874 402.330528 
L 644.5926 402.330528 
Q 660.7746 402.330528 660.7746 393.238368 
L 660.7746 274.131072 
Q 660.7746 265.038912 644.5926 265.038912 
L 181.7874 265.038912 
Q 165.6054 265.038912 165.6054 274.131072 
L 165.6054 393.238368 
Q 165.6054 402.330528 181.7874 402.330528 
z
" clip-path="url(#pb0a18eb905)" style="fill: #211d31; stroke: #9d7bff; stroke-width: 1.4; stroke-linejoin: miter"/>
   </g>
   <g id="text_1">
    <!-- Training infrastructure summary -->
    <g style="fill: #f3eeff" transform="translate(32.913 35.91648)scale(0.2 -0.2)">
     <defs>
      <path id="DejaVuSans-Bold-54" d="M 31 4666 
L 4331 4666 
L 4331 3756 
L 2784 3756 
L 2784 0 
L 1581 0 
L 1581 3756 
L 31 3756 
L 31 4666 
z
" transform="scale(0.015625)"/>
      <path id="DejaVuSans-Bold-72" d="M 3138 2547 
Q 2991 2616 2845 2648 
Q 2700 2681 2553 2681 
Q 2122 2681 1889 2404 
Q 1656 2128 1656 1613 
L 1656 0 
L 538 0 
L 538 3500 
L 1656 3500 
L 1656 2925 
Q 1872 3269 2151 3426 
Q 2431 3584 2822 3584 
Q 2878 3584 2943 3579 
Q 3009 3575 3134 3559 
L 3138 2547 
z
" transform="scale(0.015625)"/>
      <path id="DejaVuSans-Bold-61" d="M 2106 1575 
Q 1756 1575 1579 1456 
Q 1403 1338 1403 1106 
Q 1403 894 1545 773 
Q 1688 653 1941 653 
Q 2256 653 2472 879 
Q 2688 1106 2688 1447 
L 2688 1575 
L 2106 1575 
z
M 3816 1997 
L 3816 0 
L 2688 0 
L 2688 519 
Q 2463 200 2181 54 
Q 1900 -91 1497 -91 
Q 953 -91 614 226 
Q 275 544 275 1050 
Q 275 1666 698 1953 
Q 1122 2241 2028 2241 
L 2688 2241 
L 2688 2328 
Q 2688 2594 2478 2717 
Q 2269 2841 1825 2841 
Q 1466 2841 1156 2769 
Q 847 2697 581 2553 
L 581 3406 
Q 941 3494 1303 3539 
Q 1666 3584 2028 3584 
Q 2975 3584 3395 3211 
Q 3816 2838 3816 1997 
z
" transform="scale(0.015625)"/>
      <path id="DejaVuSans-Bold-69" d="M 538 3500 
L 1656 3500 
L 1656 0 
L 538 0 
L 538 3500 
z
M 538 4863 
L 1656 4863 
L 1656 3950 
L 538 3950 
L 538 4863 
z
" transform="scale(0.015625)"/>
      <path id="DejaVuSans-Bold-6e" d="M 4056 2131 
L 4056 0 
L 2931 0 
L 2931 347 
L 2931 1631 
Q 2931 2084 2911 2256 
Q 2891 2428 2841 2509 
Q 2775 2619 2662 2680 
Q 2550 2741 2406 2741 
Q 2056 2741 1856 2470 
Q 1656 2200 1656 1722 
L 1656 0 
L 538 0 
L 538 3500 
L 1656 3500 
L 1656 2988 
Q 1909 3294 2193 3439 
Q 2478 3584 2822 3584 
Q 3428 3584 3742 3212 
Q 4056 2841 4056 2131 
z
" transform="scale(0.015625)"/>
      <path id="DejaVuSans-Bold-67" d="M 2919 594 
Q 2688 288 2409 144 
Q 2131 0 1766 0 
Q 1125 0 706 504 
Q 288 1009 288 1791 
Q 288 2575 706 3076 
Q 1125 3578 1766 3578 
Q 2131 3578 2409 3434 
Q 2688 3291 2919 2981 
L 2919 3500 
L 4044 3500 
L 4044 353 
Q 4044 -491 3511 -936 
Q 2978 -1381 1966 -1381 
Q 1638 -1381 1331 -1331 
Q 1025 -1281 716 -1178 
L 716 -306 
Q 1009 -475 1290 -558 
Q 1572 -641 1856 -641 
Q 2406 -641 2662 -400 
Q 2919 -159 2919 353 
L 2919 594 
z
M 2181 2772 
Q 1834 2772 1640 2515 
Q 1447 2259 1447 1791 
Q 1447 1309 1634 1061 
Q 1822 813 2181 813 
Q 2531 813 2725 1069 
Q 2919 1325 2919 1791 
Q 2919 2259 2725 2515 
Q 2531 2772 2181 2772 
z
" transform="scale(0.015625)"/>
      <path id="DejaVuSans-Bold-20" transform="scale(0.015625)"/>
      <path id="DejaVuSans-Bold-66" d="M 2841 4863 
L 2841 4128 
L 2222 4128 
Q 1984 4128 1890 4042 
Q 1797 3956 1797 3744 
L 1797 3500 
L 2753 3500 
L 2753 2700 
L 1797 2700 
L 1797 0 
L 678 0 
L 678 2700 
L 122 2700 
L 122 3500 
L 678 3500 
L 678 3744 
Q 678 4316 997 4589 
Q 1316 4863 1984 4863 
L 2841 4863 
z
" transform="scale(0.015625)"/>
      <path id="DejaVuSans-Bold-73" d="M 3272 3391 
L 3272 2541 
Q 2913 2691 2578 2766 
Q 2244 2841 1947 2841 
Q 1628 2841 1473 2761 
Q 1319 2681 1319 2516 
Q 1319 2381 1436 2309 
Q 1553 2238 1856 2203 
L 2053 2175 
Q 2913 2066 3209 1816 
Q 3506 1566 3506 1031 
Q 3506 472 3093 190 
Q 2681 -91 1863 -91 
Q 1516 -91 1145 -36 
Q 775 19 384 128 
L 384 978 
Q 719 816 1070 734 
Q 1422 653 1784 653 
Q 2113 653 2278 743 
Q 2444 834 2444 1013 
Q 2444 1163 2330 1236 
Q 2216 1309 1875 1350 
L 1678 1375 
Q 931 1469 631 1722 
Q 331 1975 331 2491 
Q 331 3047 712 3315 
Q 1094 3584 1881 3584 
Q 2191 3584 2531 3537 
Q 2872 3491 3272 3391 
z
" transform="scale(0.015625)"/>
      <path id="DejaVuSans-Bold-74" d="M 1759 4494 
L 1759 3500 
L 2913 3500 
L 2913 2700 
L 1759 2700 
L 1759 1216 
Q 1759 972 1856 886 
Q 1953 800 2241 800 
L 2816 800 
L 2816 0 
L 1856 0 
Q 1194 0 917 276 
Q 641 553 641 1216 
L 641 2700 
L 84 2700 
L 84 3500 
L 641 3500 
L 641 4494 
L 1759 4494 
z
" transform="scale(0.015625)"/>
      <path id="DejaVuSans-Bold-75" d="M 500 1363 
L 500 3500 
L 1625 3500 
L 1625 3150 
Q 1625 2866 1622 2436 
Q 1619 2006 1619 1863 
Q 1619 1441 1641 1255 
Q 1663 1069 1716 984 
Q 1784 875 1895 815 
Q 2006 756 2150 756 
Q 2500 756 2700 1025 
Q 2900 1294 2900 1772 
L 2900 3500 
L 4019 3500 
L 4019 0 
L 2900 0 
L 2900 506 
Q 2647 200 2364 54 
Q 2081 -91 1741 -91 
Q 1134 -91 817 281 
Q 500 653 500 1363 
z
" transform="scale(0.015625)"/>
      <path id="DejaVuSans-Bold-63" d="M 3366 3391 
L 3366 2478 
Q 3138 2634 2908 2709 
Q 2678 2784 2431 2784 
Q 1963 2784 1702 2511 
Q 1441 2238 1441 1747 
Q 1441 1256 1702 982 
Q 1963 709 2431 709 
Q 2694 709 2930 787 
Q 3166 866 3366 1019 
L 3366 103 
Q 3103 6 2833 -42 
Q 2563 -91 2291 -91 
Q 1344 -91 809 395 
Q 275 881 275 1747 
Q 275 2613 809 3098 
Q 1344 3584 2291 3584 
Q 2566 3584 2833 3536 
Q 3100 3488 3366 3391 
z
" transform="scale(0.015625)"/>
      <path id="DejaVuSans-Bold-65" d="M 4031 1759 
L 4031 1441 
L 1416 1441 
Q 1456 1047 1700 850 
Q 1944 653 2381 653 
Q 2734 653 3104 758 
Q 3475 863 3866 1075 
L 3866 213 
Q 3469 63 3072 -14 
Q 2675 -91 2278 -91 
Q 1328 -91 801 392 
Q 275 875 275 1747 
Q 275 2603 792 3093 
Q 1309 3584 2216 3584 
Q 3041 3584 3536 3087 
Q 4031 2591 4031 1759 
z
M 2881 2131 
Q 2881 2450 2695 2645 
Q 2509 2841 2209 2841 
Q 1884 2841 1681 2658 
Q 1478 2475 1428 2131 
L 2881 2131 
z
" transform="scale(0.015625)"/>
      <path id="DejaVuSans-Bold-6d" d="M 3781 2919 
Q 3994 3244 4286 3414 
Q 4578 3584 4928 3584 
Q 5531 3584 5847 3212 
Q 6163 2841 6163 2131 
L 6163 0 
L 5038 0 
L 5038 1825 
Q 5041 1866 5042 1909 
Q 5044 1953 5044 2034 
Q 5044 2406 4934 2573 
Q 4825 2741 4581 2741 
Q 4263 2741 4089 2478 
Q 3916 2216 3909 1719 
L 3909 0 
L 2784 0 
L 2784 1825 
Q 2784 2406 2684 2573 
Q 2584 2741 2328 2741 
Q 2006 2741 1831 2477 
Q 1656 2213 1656 1722 
L 1656 0 
L 531 0 
L 531 3500 
L 1656 3500 
L 1656 2988 
Q 1863 3284 2130 3434 
Q 2397 3584 2719 3584 
Q 3081 3584 3359 3409 
Q 3638 3234 3781 2919 
z
" transform="scale(0.015625)"/>
      <path id="DejaVuSans-Bold-79" d="M 78 3500 
L 1197 3500 
L 2138 1125 
L 2938 3500 
L 4056 3500 
L 2584 -331 
Q 2363 -916 2067 -1148 
Q 1772 -1381 1288 -1381 
L 641 -1381 
L 641 -647 
L 991 -647 
Q 1275 -647 1404 -556 
Q 1534 -466 1606 -231 
L 1638 -134 
L 78 3500 
z
" transform="scale(0.015625)"/>
     </defs>
     <use xlink:href="#DejaVuSans-Bold-54"/>
     <use xlink:href="#DejaVuSans-Bold-72" x="57.212891"/>
     <use xlink:href="#DejaVuSans-Bold-61" x="106.529297"/>
     <use xlink:href="#DejaVuSans-Bold-69" x="174.009766"/>
     <use xlink:href="#DejaVuSans-Bold-6e" x="208.287109"/>
     <use xlink:href="#DejaVuSans-Bold-69" x="279.478516"/>
     <use xlink:href="#DejaVuSans-Bold-6e" x="313.755859"/>
     <use xlink:href="#DejaVuSans-Bold-67" x="384.947266"/>
     <use xlink:href="#DejaVuSans-Bold-20" x="456.529297"/>
     <use xlink:href="#DejaVuSans-Bold-69" x="491.34375"/>
     <use xlink:href="#DejaVuSans-Bold-6e" x="525.621094"/>
     <use xlink:href="#DejaVuSans-Bold-66" x="596.8125"/>
     <use xlink:href="#DejaVuSans-Bold-72" x="640.318359"/>
     <use xlink:href="#DejaVuSans-Bold-61" x="689.634766"/>
     <use xlink:href="#DejaVuSans-Bold-73" x="757.115234"/>
     <use xlink:href="#DejaVuSans-Bold-74" x="816.636719"/>
     <use xlink:href="#DejaVuSans-Bold-72" x="864.439453"/>
     <use xlink:href="#DejaVuSans-Bold-75" x="913.755859"/>
     <use xlink:href="#DejaVuSans-Bold-63" x="984.947266"/>
     <use xlink:href="#DejaVuSans-Bold-74" x="1044.224609"/>
     <use xlink:href="#DejaVuSans-Bold-75" x="1092.027344"/>
     <use xlink:href="#DejaVuSans-Bold-72" x="1163.21875"/>
     <use xlink:href="#DejaVuSans-Bold-65" x="1212.535156"/>
     <use xlink:href="#DejaVuSans-Bold-20" x="1280.357422"/>
     <use xlink:href="#DejaVuSans-Bold-73" x="1315.171875"/>
     <use xlink:href="#DejaVuSans-Bold-75" x="1374.693359"/>
     <use xlink:href="#DejaVuSans-Bold-6d" x="1445.884766"/>
     <use xlink:href="#DejaVuSans-Bold-6d" x="1550.083984"/>
     <use xlink:href="#DejaVuSans-Bold-61" x="1654.283203"/>
     <use xlink:href="#DejaVuSans-Bold-72" x="1721.763672"/>
     <use xlink:href="#DejaVuSans-Bold-79" x="1771.080078"/>
    </g>
   </g>
   <g id="text_2">
    <!-- Frozen normal-host and final-lineage runtime record -->
    <g style="fill: #b9b0cc" transform="translate(32.913 54.1008)scale(0.1 -0.1)">
     <defs>
      <path id="DejaVuSans-46" d="M 628 4666 
L 3309 4666 
L 3309 4134 
L 1259 4134 
L 1259 2759 
L 3109 2759 
L 3109 2228 
L 1259 2228 
L 1259 0 
L 628 0 
L 628 4666 
z
" transform="scale(0.015625)"/>
      <path id="DejaVuSans-72" d="M 2631 2963 
Q 2534 3019 2420 3045 
Q 2306 3072 2169 3072 
Q 1681 3072 1420 2755 
Q 1159 2438 1159 1844 
L 1159 0 
L 581 0 
L 581 3500 
L 1159 3500 
L 1159 2956 
Q 1341 3275 1631 3429 
Q 1922 3584 2338 3584 
Q 2397 3584 2469 3576 
Q 2541 3569 2628 3553 
L 2631 2963 
z
" transform="scale(0.015625)"/>
      <path id="DejaVuSans-6f" d="M 1959 3097 
Q 1497 3097 1228 2736 
Q 959 2375 959 1747 
Q 959 1119 1226 758 
Q 1494 397 1959 397 
Q 2419 397 2687 759 
Q 2956 1122 2956 1747 
Q 2956 2369 2687 2733 
Q 2419 3097 1959 3097 
z
M 1959 3584 
Q 2709 3584 3137 3096 
Q 3566 2609 3566 1747 
Q 3566 888 3137 398 
Q 2709 -91 1959 -91 
Q 1206 -91 779 398 
Q 353 888 353 1747 
Q 353 2609 779 3096 
Q 1206 3584 1959 3584 
z
" transform="scale(0.015625)"/>
      <path id="DejaVuSans-7a" d="M 353 3500 
L 3084 3500 
L 3084 2975 
L 922 459 
L 3084 459 
L 3084 0 
L 275 0 
L 275 525 
L 2438 3041 
L 353 3041 
L 353 3500 
z
" transform="scale(0.015625)"/>
      <path id="DejaVuSans-65" d="M 3597 1894 
L 3597 1613 
L 953 1613 
Q 991 1019 1311 708 
Q 1631 397 2203 397 
Q 2534 397 2845 478 
Q 3156 559 3463 722 
L 3463 178 
Q 3153 47 2828 -22 
Q 2503 -91 2169 -91 
Q 1331 -91 842 396 
Q 353 884 353 1716 
Q 353 2575 817 3079 
Q 1281 3584 2069 3584 
Q 2775 3584 3186 3129 
Q 3597 2675 3597 1894 
z
M 3022 2063 
Q 3016 2534 2758 2815 
Q 2500 3097 2075 3097 
Q 1594 3097 1305 2825 
Q 1016 2553 972 2059 
L 3022 2063 
z
" transform="scale(0.015625)"/>
      <path id="DejaVuSans-6e" d="M 3513 2113 
L 3513 0 
L 2938 0 
L 2938 2094 
Q 2938 2591 2744 2837 
Q 2550 3084 2163 3084 
Q 1697 3084 1428 2787 
Q 1159 2491 1159 1978 
L 1159 0 
L 581 0 
L 581 3500 
L 1159 3500 
L 1159 2956 
Q 1366 3272 1645 3428 
Q 1925 3584 2291 3584 
Q 2894 3584 3203 3211 
Q 3513 2838 3513 2113 
z
" transform="scale(0.015625)"/>
      <path id="DejaVuSans-20" transform="scale(0.015625)"/>
      <path id="DejaVuSans-6d" d="M 3328 2828 
Q 3544 3216 3844 3400 
Q 4144 3584 4550 3584 
Q 5097 3584 5394 3201 
Q 5691 2819 5691 2113 
L 5691 0 
L 5113 0 
L 5113 2094 
Q 5113 2597 4934 2840 
Q 4756 3084 4391 3084 
Q 3944 3084 3684 2787 
Q 3425 2491 3425 1978 
L 3425 0 
L 2847 0 
L 2847 2094 
Q 2847 2600 2669 2842 
Q 2491 3084 2119 3084 
Q 1678 3084 1418 2786 
Q 1159 2488 1159 1978 
L 1159 0 
L 581 0 
L 581 3500 
L 1159 3500 
L 1159 2956 
Q 1356 3278 1631 3431 
Q 1906 3584 2284 3584 
Q 2666 3584 2933 3390 
Q 3200 3197 3328 2828 
z
" transform="scale(0.015625)"/>
      <path id="DejaVuSans-61" d="M 2194 1759 
Q 1497 1759 1228 1600 
Q 959 1441 959 1056 
Q 959 750 1161 570 
Q 1363 391 1709 391 
Q 2188 391 2477 730 
Q 2766 1069 2766 1631 
L 2766 1759 
L 2194 1759 
z
M 3341 1997 
L 3341 0 
L 2766 0 
L 2766 531 
Q 2569 213 2275 61 
Q 1981 -91 1556 -91 
Q 1019 -91 701 211 
Q 384 513 384 1019 
Q 384 1609 779 1909 
Q 1175 2209 1959 2209 
L 2766 2209 
L 2766 2266 
Q 2766 2663 2505 2880 
Q 2244 3097 1772 3097 
Q 1472 3097 1187 3025 
Q 903 2953 641 2809 
L 641 3341 
Q 956 3463 1253 3523 
Q 1550 3584 1831 3584 
Q 2591 3584 2966 3190 
Q 3341 2797 3341 1997 
z
" transform="scale(0.015625)"/>
      <path id="DejaVuSans-6c" d="M 603 4863 
L 1178 4863 
L 1178 0 
L 603 0 
L 603 4863 
z
" transform="scale(0.015625)"/>
      <path id="DejaVuSans-2d" d="M 313 2009 
L 1997 2009 
L 1997 1497 
L 313 1497 
L 313 2009 
z
" transform="scale(0.015625)"/>
      <path id="DejaVuSans-68" d="M 3513 2113 
L 3513 0 
L 2938 0 
L 2938 2094 
Q 2938 2591 2744 2837 
Q 2550 3084 2163 3084 
Q 1697 3084 1428 2787 
Q 1159 2491 1159 1978 
L 1159 0 
L 581 0 
L 581 4863 
L 1159 4863 
L 1159 2956 
Q 1366 3272 1645 3428 
Q 1925 3584 2291 3584 
Q 2894 3584 3203 3211 
Q 3513 2838 3513 2113 
z
" transform="scale(0.015625)"/>
      <path id="DejaVuSans-73" d="M 2834 3397 
L 2834 2853 
Q 2591 2978 2328 3040 
Q 2066 3103 1784 3103 
Q 1356 3103 1142 2972 
Q 928 2841 928 2578 
Q 928 2378 1081 2264 
Q 1234 2150 1697 2047 
L 1894 2003 
Q 2506 1872 2764 1633 
Q 3022 1394 3022 966 
Q 3022 478 2636 193 
Q 2250 -91 1575 -91 
Q 1294 -91 989 -36 
Q 684 19 347 128 
L 347 722 
Q 666 556 975 473 
Q 1284 391 1588 391 
Q 1994 391 2212 530 
Q 2431 669 2431 922 
Q 2431 1156 2273 1281 
Q 2116 1406 1581 1522 
L 1381 1569 
Q 847 1681 609 1914 
Q 372 2147 372 2553 
Q 372 3047 722 3315 
Q 1072 3584 1716 3584 
Q 2034 3584 2315 3537 
Q 2597 3491 2834 3397 
z
" transform="scale(0.015625)"/>
      <path id="DejaVuSans-74" d="M 1172 4494 
L 1172 3500 
L 2356 3500 
L 2356 3053 
L 1172 3053 
L 1172 1153 
Q 1172 725 1289 603 
Q 1406 481 1766 481 
L 2356 481 
L 2356 0 
L 1766 0 
Q 1100 0 847 248 
Q 594 497 594 1153 
L 594 3053 
L 172 3053 
L 172 3500 
L 594 3500 
L 594 4494 
L 1172 4494 
z
" transform="scale(0.015625)"/>
      <path id="DejaVuSans-64" d="M 2906 2969 
L 2906 4863 
L 3481 4863 
L 3481 0 
L 2906 0 
L 2906 525 
Q 2725 213 2448 61 
Q 2172 -91 1784 -91 
Q 1150 -91 751 415 
Q 353 922 353 1747 
Q 353 2572 751 3078 
Q 1150 3584 1784 3584 
Q 2172 3584 2448 3432 
Q 2725 3281 2906 2969 
z
M 947 1747 
Q 947 1113 1208 752 
Q 1469 391 1925 391 
Q 2381 391 2643 752 
Q 2906 1113 2906 1747 
Q 2906 2381 2643 2742 
Q 2381 3103 1925 3103 
Q 1469 3103 1208 2742 
Q 947 2381 947 1747 
z
" transform="scale(0.015625)"/>
      <path id="DejaVuSans-66" d="M 2375 4863 
L 2375 4384 
L 1825 4384 
Q 1516 4384 1395 4259 
Q 1275 4134 1275 3809 
L 1275 3500 
L 2222 3500 
L 2222 3053 
L 1275 3053 
L 1275 0 
L 697 0 
L 697 3053 
L 147 3053 
L 147 3500 
L 697 3500 
L 697 3744 
Q 697 4328 969 4595 
Q 1241 4863 1831 4863 
L 2375 4863 
z
" transform="scale(0.015625)"/>
      <path id="DejaVuSans-69" d="M 603 3500 
L 1178 3500 
L 1178 0 
L 603 0 
L 603 3500 
z
M 603 4863 
L 1178 4863 
L 1178 4134 
L 603 4134 
L 603 4863 
z
" transform="scale(0.015625)"/>
      <path id="DejaVuSans-67" d="M 2906 1791 
Q 2906 2416 2648 2759 
Q 2391 3103 1925 3103 
Q 1463 3103 1205 2759 
Q 947 2416 947 1791 
Q 947 1169 1205 825 
Q 1463 481 1925 481 
Q 2391 481 2648 825 
Q 2906 1169 2906 1791 
z
M 3481 434 
Q 3481 -459 3084 -895 
Q 2688 -1331 1869 -1331 
Q 1566 -1331 1297 -1286 
Q 1028 -1241 775 -1147 
L 775 -588 
Q 1028 -725 1275 -790 
Q 1522 -856 1778 -856 
Q 2344 -856 2625 -561 
Q 2906 -266 2906 331 
L 2906 616 
Q 2728 306 2450 153 
Q 2172 0 1784 0 
Q 1141 0 747 490 
Q 353 981 353 1791 
Q 353 2603 747 3093 
Q 1141 3584 1784 3584 
Q 2172 3584 2450 3431 
Q 2728 3278 2906 2969 
L 2906 3500 
L 3481 3500 
L 3481 434 
z
" transform="scale(0.015625)"/>
      <path id="DejaVuSans-75" d="M 544 1381 
L 544 3500 
L 1119 3500 
L 1119 1403 
Q 1119 906 1312 657 
Q 1506 409 1894 409 
Q 2359 409 2629 706 
Q 2900 1003 2900 1516 
L 2900 3500 
L 3475 3500 
L 3475 0 
L 2900 0 
L 2900 538 
Q 2691 219 2414 64 
Q 2138 -91 1772 -91 
Q 1169 -91 856 284 
Q 544 659 544 1381 
z
M 1991 3584 
L 1991 3584 
z
" transform="scale(0.015625)"/>
      <path id="DejaVuSans-63" d="M 3122 3366 
L 3122 2828 
Q 2878 2963 2633 3030 
Q 2388 3097 2138 3097 
Q 1578 3097 1268 2742 
Q 959 2388 959 1747 
Q 959 1106 1268 751 
Q 1578 397 2138 397 
Q 2388 397 2633 464 
Q 2878 531 3122 666 
L 3122 134 
Q 2881 22 2623 -34 
Q 2366 -91 2075 -91 
Q 1284 -91 818 406 
Q 353 903 353 1747 
Q 353 2603 823 3093 
Q 1294 3584 2113 3584 
Q 2378 3584 2631 3529 
Q 2884 3475 3122 3366 
z
" transform="scale(0.015625)"/>
     </defs>
     <use xlink:href="#DejaVuSans-46"/>
     <use xlink:href="#DejaVuSans-72" x="50.269531"/>
     <use xlink:href="#DejaVuSans-6f" x="89.132812"/>
     <use xlink:href="#DejaVuSans-7a" x="150.314453"/>
     <use xlink:href="#DejaVuSans-65" x="202.804688"/>
     <use xlink:href="#DejaVuSans-6e" x="264.328125"/>
     <use xlink:href="#DejaVuSans-20" x="327.707031"/>
     <use xlink:href="#DejaVuSans-6e" x="359.494141"/>
     <use xlink:href="#DejaVuSans-6f" x="422.873047"/>
     <use xlink:href="#DejaVuSans-72" x="484.054688"/>
     <use xlink:href="#DejaVuSans-6d" x="523.417969"/>
     <use xlink:href="#DejaVuSans-61" x="620.830078"/>
     <use xlink:href="#DejaVuSans-6c" x="682.109375"/>
     <use xlink:href="#DejaVuSans-2d" x="709.892578"/>
     <use xlink:href="#DejaVuSans-68" x="745.976562"/>
     <use xlink:href="#DejaVuSans-6f" x="809.355469"/>
     <use xlink:href="#DejaVuSans-73" x="870.537109"/>
     <use xlink:href="#DejaVuSans-74" x="922.636719"/>
     <use xlink:href="#DejaVuSans-20" x="961.845703"/>
     <use xlink:href="#DejaVuSans-61" x="993.632812"/>
     <use xlink:href="#DejaVuSans-6e" x="1054.912109"/>
     <use xlink:href="#DejaVuSans-64" x="1118.291016"/>
     <use xlink:href="#DejaVuSans-20" x="1181.767578"/>
     <use xlink:href="#DejaVuSans-66" x="1213.554688"/>
     <use xlink:href="#DejaVuSans-69" x="1248.759766"/>
     <use xlink:href="#DejaVuSans-6e" x="1276.542969"/>
     <use xlink:href="#DejaVuSans-61" x="1339.921875"/>
     <use xlink:href="#DejaVuSans-6c" x="1401.201172"/>
     <use xlink:href="#DejaVuSans-2d" x="1428.984375"/>
     <use xlink:href="#DejaVuSans-6c" x="1465.068359"/>
     <use xlink:href="#DejaVuSans-69" x="1492.851562"/>
     <use xlink:href="#DejaVuSans-6e" x="1520.634766"/>
     <use xlink:href="#DejaVuSans-65" x="1584.013672"/>
     <use xlink:href="#DejaVuSans-61" x="1645.537109"/>
     <use xlink:href="#DejaVuSans-67" x="1706.816406"/>
     <use xlink:href="#DejaVuSans-65" x="1770.292969"/>
     <use xlink:href="#DejaVuSans-20" x="1831.816406"/>
     <use xlink:href="#DejaVuSans-72" x="1863.603516"/>
     <use xlink:href="#DejaVuSans-75" x="1904.716797"/>
     <use xlink:href="#DejaVuSans-6e" x="1968.095703"/>
     <use xlink:href="#DejaVuSans-74" x="2031.474609"/>
     <use xlink:href="#DejaVuSans-69" x="2070.683594"/>
     <use xlink:href="#DejaVuSans-6d" x="2098.466797"/>
     <use xlink:href="#DejaVuSans-65" x="2195.878906"/>
     <use xlink:href="#DejaVuSans-20" x="2257.402344"/>
     <use xlink:href="#DejaVuSans-72" x="2289.189453"/>
     <use xlink:href="#DejaVuSans-65" x="2328.052734"/>
     <use xlink:href="#DejaVuSans-63" x="2389.576172"/>
     <use xlink:href="#DejaVuSans-6f" x="2444.556641"/>
     <use xlink:href="#DejaVuSans-72" x="2505.738281"/>
     <use xlink:href="#DejaVuSans-64" x="2545.101562"/>
    </g>
   </g>
   <g id="text_3">
    <!-- Host -->
    <g style="fill: #d9ccff" transform="translate(69.3225 115.47288)scale(0.12 -0.12)">
     <defs>
      <path id="DejaVuSans-Bold-48" d="M 588 4666 
L 1791 4666 
L 1791 2888 
L 3566 2888 
L 3566 4666 
L 4769 4666 
L 4769 0 
L 3566 0 
L 3566 1978 
L 1791 1978 
L 1791 0 
L 588 0 
L 588 4666 
z
" transform="scale(0.015625)"/>
      <path id="DejaVuSans-Bold-6f" d="M 2203 2784 
Q 1831 2784 1636 2517 
Q 1441 2250 1441 1747 
Q 1441 1244 1636 976 
Q 1831 709 2203 709 
Q 2569 709 2762 976 
Q 2956 1244 2956 1747 
Q 2956 2250 2762 2517 
Q 2569 2784 2203 2784 
z
M 2203 3584 
Q 3106 3584 3614 3096 
Q 4122 2609 4122 1747 
Q 4122 884 3614 396 
Q 3106 -91 2203 -91 
Q 1297 -91 786 396 
Q 275 884 275 1747 
Q 275 2609 786 3096 
Q 1297 3584 2203 3584 
z
" transform="scale(0.015625)"/>
     </defs>
     <use xlink:href="#DejaVuSans-Bold-48"/>
     <use xlink:href="#DejaVuSans-Bold-6f" x="83.691406"/>
     <use xlink:href="#DejaVuSans-Bold-73" x="152.392578"/>
     <use xlink:href="#DejaVuSans-Bold-74" x="211.914062"/>
    </g>
   </g>
   <g id="text_4">
    <!-- • NVIDIA GH200 480GB -->
    <g style="fill: #f3eeff" transform="translate(73.368 138.20328)scale(0.1 -0.1)">
     <defs>
      <path id="DejaVuSans-2022" d="M 959 2381 
Q 959 2769 1229 3036 
Q 1500 3303 1894 3303 
Q 2281 3303 2548 3036 
Q 2816 2769 2816 2381 
Q 2816 1991 2547 1722 
Q 2278 1453 1888 1453 
Q 1497 1453 1228 1722 
Q 959 1991 959 2381 
z
" transform="scale(0.015625)"/>
      <path id="DejaVuSans-4e" d="M 628 4666 
L 1478 4666 
L 3547 763 
L 3547 4666 
L 4159 4666 
L 4159 0 
L 3309 0 
L 1241 3903 
L 1241 0 
L 628 0 
L 628 4666 
z
" transform="scale(0.015625)"/>
      <path id="DejaVuSans-56" d="M 1831 0 
L 50 4666 
L 709 4666 
L 2188 738 
L 3669 4666 
L 4325 4666 
L 2547 0 
L 1831 0 
z
" transform="scale(0.015625)"/>
      <path id="DejaVuSans-49" d="M 628 4666 
L 1259 4666 
L 1259 0 
L 628 0 
L 628 4666 
z
" transform="scale(0.015625)"/>
      <path id="DejaVuSans-44" d="M 1259 4147 
L 1259 519 
L 2022 519 
Q 2988 519 3436 956 
Q 3884 1394 3884 2338 
Q 3884 3275 3436 3711 
Q 2988 4147 2022 4147 
L 1259 4147 
z
M 628 4666 
L 1925 4666 
Q 3281 4666 3915 4102 
Q 4550 3538 4550 2338 
Q 4550 1131 3912 565 
Q 3275 0 1925 0 
L 628 0 
L 628 4666 
z
" transform="scale(0.015625)"/>
      <path id="DejaVuSans-41" d="M 2188 4044 
L 1331 1722 
L 3047 1722 
L 2188 4044 
z
M 1831 4666 
L 2547 4666 
L 4325 0 
L 3669 0 
L 3244 1197 
L 1141 1197 
L 716 0 
L 50 0 
L 1831 4666 
z
" transform="scale(0.015625)"/>
      <path id="DejaVuSans-47" d="M 3809 666 
L 3809 1919 
L 2778 1919 
L 2778 2438 
L 4434 2438 
L 4434 434 
Q 4069 175 3628 42 
Q 3188 -91 2688 -91 
Q 1594 -91 976 548 
Q 359 1188 359 2328 
Q 359 3472 976 4111 
Q 1594 4750 2688 4750 
Q 3144 4750 3555 4637 
Q 3966 4525 4313 4306 
L 4313 3634 
Q 3963 3931 3569 4081 
Q 3175 4231 2741 4231 
Q 1884 4231 1454 3753 
Q 1025 3275 1025 2328 
Q 1025 1384 1454 906 
Q 1884 428 2741 428 
Q 3075 428 3337 486 
Q 3600 544 3809 666 
z
" transform="scale(0.015625)"/>
      <path id="DejaVuSans-48" d="M 628 4666 
L 1259 4666 
L 1259 2753 
L 3553 2753 
L 3553 4666 
L 4184 4666 
L 4184 0 
L 3553 0 
L 3553 2222 
L 1259 2222 
L 1259 0 
L 628 0 
L 628 4666 
z
" transform="scale(0.015625)"/>
      <path id="DejaVuSans-32" d="M 1228 531 
L 3431 531 
L 3431 0 
L 469 0 
L 469 531 
Q 828 903 1448 1529 
Q 2069 2156 2228 2338 
Q 2531 2678 2651 2914 
Q 2772 3150 2772 3378 
Q 2772 3750 2511 3984 
Q 2250 4219 1831 4219 
Q 1534 4219 1204 4116 
Q 875 4013 500 3803 
L 500 4441 
Q 881 4594 1212 4672 
Q 1544 4750 1819 4750 
Q 2544 4750 2975 4387 
Q 3406 4025 3406 3419 
Q 3406 3131 3298 2873 
Q 3191 2616 2906 2266 
Q 2828 2175 2409 1742 
Q 1991 1309 1228 531 
z
" transform="scale(0.015625)"/>
      <path id="DejaVuSans-30" d="M 2034 4250 
Q 1547 4250 1301 3770 
Q 1056 3291 1056 2328 
Q 1056 1369 1301 889 
Q 1547 409 2034 409 
Q 2525 409 2770 889 
Q 3016 1369 3016 2328 
Q 3016 3291 2770 3770 
Q 2525 4250 2034 4250 
z
M 2034 4750 
Q 2819 4750 3233 4129 
Q 3647 3509 3647 2328 
Q 3647 1150 3233 529 
Q 2819 -91 2034 -91 
Q 1250 -91 836 529 
Q 422 1150 422 2328 
Q 422 3509 836 4129 
Q 1250 4750 2034 4750 
z
" transform="scale(0.015625)"/>
      <path id="DejaVuSans-34" d="M 2419 4116 
L 825 1625 
L 2419 1625 
L 2419 4116 
z
M 2253 4666 
L 3047 4666 
L 3047 1625 
L 3713 1625 
L 3713 1100 
L 3047 1100 
L 3047 0 
L 2419 0 
L 2419 1100 
L 313 1100 
L 313 1709 
L 2253 4666 
z
" transform="scale(0.015625)"/>
      <path id="DejaVuSans-38" d="M 2034 2216 
Q 1584 2216 1326 1975 
Q 1069 1734 1069 1313 
Q 1069 891 1326 650 
Q 1584 409 2034 409 
Q 2484 409 2743 651 
Q 3003 894 3003 1313 
Q 3003 1734 2745 1975 
Q 2488 2216 2034 2216 
z
M 1403 2484 
Q 997 2584 770 2862 
Q 544 3141 544 3541 
Q 544 4100 942 4425 
Q 1341 4750 2034 4750 
Q 2731 4750 3128 4425 
Q 3525 4100 3525 3541 
Q 3525 3141 3298 2862 
Q 3072 2584 2669 2484 
Q 3125 2378 3379 2068 
Q 3634 1759 3634 1313 
Q 3634 634 3220 271 
Q 2806 -91 2034 -91 
Q 1263 -91 848 271 
Q 434 634 434 1313 
Q 434 1759 690 2068 
Q 947 2378 1403 2484 
z
M 1172 3481 
Q 1172 3119 1398 2916 
Q 1625 2713 2034 2713 
Q 2441 2713 2670 2916 
Q 2900 3119 2900 3481 
Q 2900 3844 2670 4047 
Q 2441 4250 2034 4250 
Q 1625 4250 1398 4047 
Q 1172 3844 1172 3481 
z
" transform="scale(0.015625)"/>
      <path id="DejaVuSans-42" d="M 1259 2228 
L 1259 519 
L 2272 519 
Q 2781 519 3026 730 
Q 3272 941 3272 1375 
Q 3272 1813 3026 2020 
Q 2781 2228 2272 2228 
L 1259 2228 
z
M 1259 4147 
L 1259 2741 
L 2194 2741 
Q 2656 2741 2882 2914 
Q 3109 3088 3109 3444 
Q 3109 3797 2882 3972 
Q 2656 4147 2194 4147 
L 1259 4147 
z
M 628 4666 
L 2241 4666 
Q 2963 4666 3353 4366 
Q 3744 4066 3744 3513 
Q 3744 3084 3544 2831 
Q 3344 2578 2956 2516 
Q 3422 2416 3680 2098 
Q 3938 1781 3938 1306 
Q 3938 681 3513 340 
Q 3088 0 2303 0 
L 628 0 
L 628 4666 
z
" transform="scale(0.015625)"/>
     </defs>
     <use xlink:href="#DejaVuSans-2022"/>
     <use xlink:href="#DejaVuSans-20" x="58.984375"/>
     <use xlink:href="#DejaVuSans-4e" x="90.771484"/>
     <use xlink:href="#DejaVuSans-56" x="165.576172"/>
     <use xlink:href="#DejaVuSans-49" x="233.984375"/>
     <use xlink:href="#DejaVuSans-44" x="263.476562"/>
     <use xlink:href="#DejaVuSans-49" x="340.478516"/>
     <use xlink:href="#DejaVuSans-41" x="369.970703"/>
     <use xlink:href="#DejaVuSans-20" x="438.378906"/>
     <use xlink:href="#DejaVuSans-47" x="470.166016"/>
     <use xlink:href="#DejaVuSans-48" x="547.65625"/>
     <use xlink:href="#DejaVuSans-32" x="622.851562"/>
     <use xlink:href="#DejaVuSans-30" x="686.474609"/>
     <use xlink:href="#DejaVuSans-30" x="750.097656"/>
     <use xlink:href="#DejaVuSans-20" x="813.720703"/>
     <use xlink:href="#DejaVuSans-34" x="845.507812"/>
     <use xlink:href="#DejaVuSans-38" x="909.130859"/>
     <use xlink:href="#DejaVuSans-30" x="972.753906"/>
     <use xlink:href="#DejaVuSans-47" x="1036.376953"/>
     <use xlink:href="#DejaVuSans-42" x="1113.867188"/>
    </g>
   </g>
   <g id="text_5">
    <!-- • 94.5 GiB PyTorch-visible -->
    <g style="fill: #f3eeff" transform="translate(73.368 156.3876)scale(0.1 -0.1)">
     <defs>
      <path id="DejaVuSans-39" d="M 703 97 
L 703 672 
Q 941 559 1184 500 
Q 1428 441 1663 441 
Q 2288 441 2617 861 
Q 2947 1281 2994 2138 
Q 2813 1869 2534 1725 
Q 2256 1581 1919 1581 
Q 1219 1581 811 2004 
Q 403 2428 403 3163 
Q 403 3881 828 4315 
Q 1253 4750 1959 4750 
Q 2769 4750 3195 4129 
Q 3622 3509 3622 2328 
Q 3622 1225 3098 567 
Q 2575 -91 1691 -91 
Q 1453 -91 1209 -44 
Q 966 3 703 97 
z
M 1959 2075 
Q 2384 2075 2632 2365 
Q 2881 2656 2881 3163 
Q 2881 3666 2632 3958 
Q 2384 4250 1959 4250 
Q 1534 4250 1286 3958 
Q 1038 3666 1038 3163 
Q 1038 2656 1286 2365 
Q 1534 2075 1959 2075 
z
" transform="scale(0.015625)"/>
      <path id="DejaVuSans-2e" d="M 684 794 
L 1344 794 
L 1344 0 
L 684 0 
L 684 794 
z
" transform="scale(0.015625)"/>
      <path id="DejaVuSans-35" d="M 691 4666 
L 3169 4666 
L 3169 4134 
L 1269 4134 
L 1269 2991 
Q 1406 3038 1543 3061 
Q 1681 3084 1819 3084 
Q 2600 3084 3056 2656 
Q 3513 2228 3513 1497 
Q 3513 744 3044 326 
Q 2575 -91 1722 -91 
Q 1428 -91 1123 -41 
Q 819 9 494 109 
L 494 744 
Q 775 591 1075 516 
Q 1375 441 1709 441 
Q 2250 441 2565 725 
Q 2881 1009 2881 1497 
Q 2881 1984 2565 2268 
Q 2250 2553 1709 2553 
Q 1456 2553 1204 2497 
Q 953 2441 691 2322 
L 691 4666 
z
" transform="scale(0.015625)"/>
      <path id="DejaVuSans-50" d="M 1259 4147 
L 1259 2394 
L 2053 2394 
Q 2494 2394 2734 2622 
Q 2975 2850 2975 3272 
Q 2975 3691 2734 3919 
Q 2494 4147 2053 4147 
L 1259 4147 
z
M 628 4666 
L 2053 4666 
Q 2838 4666 3239 4311 
Q 3641 3956 3641 3272 
Q 3641 2581 3239 2228 
Q 2838 1875 2053 1875 
L 1259 1875 
L 1259 0 
L 628 0 
L 628 4666 
z
" transform="scale(0.015625)"/>
      <path id="DejaVuSans-79" d="M 2059 -325 
Q 1816 -950 1584 -1140 
Q 1353 -1331 966 -1331 
L 506 -1331 
L 506 -850 
L 844 -850 
Q 1081 -850 1212 -737 
Q 1344 -625 1503 -206 
L 1606 56 
L 191 3500 
L 800 3500 
L 1894 763 
L 2988 3500 
L 3597 3500 
L 2059 -325 
z
" transform="scale(0.015625)"/>
      <path id="DejaVuSans-54" d="M -19 4666 
L 3928 4666 
L 3928 4134 
L 2272 4134 
L 2272 0 
L 1638 0 
L 1638 4134 
L -19 4134 
L -19 4666 
z
" transform="scale(0.015625)"/>
      <path id="DejaVuSans-76" d="M 191 3500 
L 800 3500 
L 1894 563 
L 2988 3500 
L 3597 3500 
L 2284 0 
L 1503 0 
L 191 3500 
z
" transform="scale(0.015625)"/>
      <path id="DejaVuSans-62" d="M 3116 1747 
Q 3116 2381 2855 2742 
Q 2594 3103 2138 3103 
Q 1681 3103 1420 2742 
Q 1159 2381 1159 1747 
Q 1159 1113 1420 752 
Q 1681 391 2138 391 
Q 2594 391 2855 752 
Q 3116 1113 3116 1747 
z
M 1159 2969 
Q 1341 3281 1617 3432 
Q 1894 3584 2278 3584 
Q 2916 3584 3314 3078 
Q 3713 2572 3713 1747 
Q 3713 922 3314 415 
Q 2916 -91 2278 -91 
Q 1894 -91 1617 61 
Q 1341 213 1159 525 
L 1159 0 
L 581 0 
L 581 4863 
L 1159 4863 
L 1159 2969 
z
" transform="scale(0.015625)"/>
     </defs>
     <use xlink:href="#DejaVuSans-2022"/>
     <use xlink:href="#DejaVuSans-20" x="58.984375"/>
     <use xlink:href="#DejaVuSans-39" x="90.771484"/>
     <use xlink:href="#DejaVuSans-34" x="154.394531"/>
     <use xlink:href="#DejaVuSans-2e" x="218.017578"/>
     <use xlink:href="#DejaVuSans-35" x="249.804688"/>
     <use xlink:href="#DejaVuSans-20" x="313.427734"/>
     <use xlink:href="#DejaVuSans-47" x="345.214844"/>
     <use xlink:href="#DejaVuSans-69" x="422.705078"/>
     <use xlink:href="#DejaVuSans-42" x="450.488281"/>
     <use xlink:href="#DejaVuSans-20" x="519.091797"/>
     <use xlink:href="#DejaVuSans-50" x="550.878906"/>
     <use xlink:href="#DejaVuSans-79" x="611.181641"/>
     <use xlink:href="#DejaVuSans-54" x="670.361328"/>
     <use xlink:href="#DejaVuSans-6f" x="714.445312"/>
     <use xlink:href="#DejaVuSans-72" x="775.626953"/>
     <use xlink:href="#DejaVuSans-63" x="814.490234"/>
     <use xlink:href="#DejaVuSans-68" x="869.470703"/>
     <use xlink:href="#DejaVuSans-2d" x="932.849609"/>
     <use xlink:href="#DejaVuSans-76" x="966.308594"/>
     <use xlink:href="#DejaVuSans-69" x="1025.488281"/>
     <use xlink:href="#DejaVuSans-73" x="1053.271484"/>
     <use xlink:href="#DejaVuSans-69" x="1105.371094"/>
     <use xlink:href="#DejaVuSans-62" x="1133.154297"/>
     <use xlink:href="#DejaVuSans-6c" x="1196.630859"/>
     <use xlink:href="#DejaVuSans-65" x="1224.414062"/>
    </g>
   </g>
   <g id="text_6">
    <!-- • ARM64 / aarch64 -->
    <g style="fill: #f3eeff" transform="translate(73.368 174.57192)scale(0.1 -0.1)">
     <defs>
      <path id="DejaVuSans-52" d="M 2841 2188 
Q 3044 2119 3236 1894 
Q 3428 1669 3622 1275 
L 4263 0 
L 3584 0 
L 2988 1197 
Q 2756 1666 2539 1819 
Q 2322 1972 1947 1972 
L 1259 1972 
L 1259 0 
L 628 0 
L 628 4666 
L 2053 4666 
Q 2853 4666 3247 4331 
Q 3641 3997 3641 3322 
Q 3641 2881 3436 2590 
Q 3231 2300 2841 2188 
z
M 1259 4147 
L 1259 2491 
L 2053 2491 
Q 2509 2491 2742 2702 
Q 2975 2913 2975 3322 
Q 2975 3731 2742 3939 
Q 2509 4147 2053 4147 
L 1259 4147 
z
" transform="scale(0.015625)"/>
      <path id="DejaVuSans-4d" d="M 628 4666 
L 1569 4666 
L 2759 1491 
L 3956 4666 
L 4897 4666 
L 4897 0 
L 4281 0 
L 4281 4097 
L 3078 897 
L 2444 897 
L 1241 4097 
L 1241 0 
L 628 0 
L 628 4666 
z
" transform="scale(0.015625)"/>
      <path id="DejaVuSans-36" d="M 2113 2584 
Q 1688 2584 1439 2293 
Q 1191 2003 1191 1497 
Q 1191 994 1439 701 
Q 1688 409 2113 409 
Q 2538 409 2786 701 
Q 3034 994 3034 1497 
Q 3034 2003 2786 2293 
Q 2538 2584 2113 2584 
z
M 3366 4563 
L 3366 3988 
Q 3128 4100 2886 4159 
Q 2644 4219 2406 4219 
Q 1781 4219 1451 3797 
Q 1122 3375 1075 2522 
Q 1259 2794 1537 2939 
Q 1816 3084 2150 3084 
Q 2853 3084 3261 2657 
Q 3669 2231 3669 1497 
Q 3669 778 3244 343 
Q 2819 -91 2113 -91 
Q 1303 -91 875 529 
Q 447 1150 447 2328 
Q 447 3434 972 4092 
Q 1497 4750 2381 4750 
Q 2619 4750 2861 4703 
Q 3103 4656 3366 4563 
z
" transform="scale(0.015625)"/>
      <path id="DejaVuSans-2f" d="M 1625 4666 
L 2156 4666 
L 531 -594 
L 0 -594 
L 1625 4666 
z
" transform="scale(0.015625)"/>
     </defs>
     <use xlink:href="#DejaVuSans-2022"/>
     <use xlink:href="#DejaVuSans-20" x="58.984375"/>
     <use xlink:href="#DejaVuSans-41" x="90.771484"/>
     <use xlink:href="#DejaVuSans-52" x="159.179688"/>
     <use xlink:href="#DejaVuSans-4d" x="228.662109"/>
     <use xlink:href="#DejaVuSans-36" x="314.941406"/>
     <use xlink:href="#DejaVuSans-34" x="378.564453"/>
     <use xlink:href="#DejaVuSans-20" x="442.1875"/>
     <use xlink:href="#DejaVuSans-2f" x="473.974609"/>
     <use xlink:href="#DejaVuSans-20" x="507.666016"/>
     <use xlink:href="#DejaVuSans-61" x="539.453125"/>
     <use xlink:href="#DejaVuSans-61" x="600.732422"/>
     <use xlink:href="#DejaVuSans-72" x="662.011719"/>
     <use xlink:href="#DejaVuSans-63" x="700.875"/>
     <use xlink:href="#DejaVuSans-68" x="755.855469"/>
     <use xlink:href="#DejaVuSans-36" x="819.234375"/>
     <use xlink:href="#DejaVuSans-34" x="882.857422"/>
    </g>
   </g>
   <g id="text_7">
    <!-- • Ubuntu 22.04.5 -->
    <g style="fill: #f3eeff" transform="translate(73.368 192.75624)scale(0.1 -0.1)">
     <defs>
      <path id="DejaVuSans-55" d="M 556 4666 
L 1191 4666 
L 1191 1831 
Q 1191 1081 1462 751 
Q 1734 422 2344 422 
Q 2950 422 3222 751 
Q 3494 1081 3494 1831 
L 3494 4666 
L 4128 4666 
L 4128 1753 
Q 4128 841 3676 375 
Q 3225 -91 2344 -91 
Q 1459 -91 1007 375 
Q 556 841 556 1753 
L 556 4666 
z
" transform="scale(0.015625)"/>
     </defs>
     <use xlink:href="#DejaVuSans-2022"/>
     <use xlink:href="#DejaVuSans-20" x="58.984375"/>
     <use xlink:href="#DejaVuSans-55" x="90.771484"/>
     <use xlink:href="#DejaVuSans-62" x="163.964844"/>
     <use xlink:href="#DejaVuSans-75" x="227.441406"/>
     <use xlink:href="#DejaVuSans-6e" x="290.820312"/>
     <use xlink:href="#DejaVuSans-74" x="354.199219"/>
     <use xlink:href="#DejaVuSans-75" x="393.408203"/>
     <use xlink:href="#DejaVuSans-20" x="456.787109"/>
     <use xlink:href="#DejaVuSans-32" x="488.574219"/>
     <use xlink:href="#DejaVuSans-32" x="552.197266"/>
     <use xlink:href="#DejaVuSans-2e" x="615.820312"/>
     <use xlink:href="#DejaVuSans-30" x="647.607422"/>
     <use xlink:href="#DejaVuSans-34" x="711.230469"/>
     <use xlink:href="#DejaVuSans-2e" x="774.853516"/>
     <use xlink:href="#DejaVuSans-35" x="806.640625"/>
    </g>
   </g>
   <g id="text_8">
    <!-- Software -->
    <g style="fill: #d9ccff" transform="translate(328.2345 115.47288)scale(0.12 -0.12)">
     <defs>
      <path id="DejaVuSans-Bold-53" d="M 3834 4519 
L 3834 3531 
Q 3450 3703 3084 3790 
Q 2719 3878 2394 3878 
Q 1963 3878 1756 3759 
Q 1550 3641 1550 3391 
Q 1550 3203 1689 3098 
Q 1828 2994 2194 2919 
L 2706 2816 
Q 3484 2659 3812 2340 
Q 4141 2022 4141 1434 
Q 4141 663 3683 286 
Q 3225 -91 2284 -91 
Q 1841 -91 1394 -6 
Q 947 78 500 244 
L 500 1259 
Q 947 1022 1364 901 
Q 1781 781 2169 781 
Q 2563 781 2772 912 
Q 2981 1044 2981 1288 
Q 2981 1506 2839 1625 
Q 2697 1744 2272 1838 
L 1806 1941 
Q 1106 2091 782 2419 
Q 459 2747 459 3303 
Q 459 4000 909 4375 
Q 1359 4750 2203 4750 
Q 2588 4750 2994 4692 
Q 3400 4634 3834 4519 
z
" transform="scale(0.015625)"/>
      <path id="DejaVuSans-Bold-77" d="M 225 3500 
L 1313 3500 
L 1900 1088 
L 2491 3500 
L 3425 3500 
L 4013 1113 
L 4603 3500 
L 5691 3500 
L 4769 0 
L 3547 0 
L 2956 2406 
L 2369 0 
L 1147 0 
L 225 3500 
z
" transform="scale(0.015625)"/>
     </defs>
     <use xlink:href="#DejaVuSans-Bold-53"/>
     <use xlink:href="#DejaVuSans-Bold-6f" x="72.021484"/>
     <use xlink:href="#DejaVuSans-Bold-66" x="140.722656"/>
     <use xlink:href="#DejaVuSans-Bold-74" x="184.228516"/>
     <use xlink:href="#DejaVuSans-Bold-77" x="232.03125"/>
     <use xlink:href="#DejaVuSans-Bold-61" x="324.414062"/>
     <use xlink:href="#DejaVuSans-Bold-72" x="391.894531"/>
     <use xlink:href="#DejaVuSans-Bold-65" x="441.210938"/>
    </g>
   </g>
   <g id="text_9">
    <!-- • PyTorch 2.7.0 -->
    <g style="fill: #f3eeff" transform="translate(332.28 138.20328)scale(0.1 -0.1)">
     <defs>
      <path id="DejaVuSans-37" d="M 525 4666 
L 3525 4666 
L 3525 4397 
L 1831 0 
L 1172 0 
L 2766 4134 
L 525 4134 
L 525 4666 
z
" transform="scale(0.015625)"/>
     </defs>
     <use xlink:href="#DejaVuSans-2022"/>
     <use xlink:href="#DejaVuSans-20" x="58.984375"/>
     <use xlink:href="#DejaVuSans-50" x="90.771484"/>
     <use xlink:href="#DejaVuSans-79" x="151.074219"/>
     <use xlink:href="#DejaVuSans-54" x="210.253906"/>
     <use xlink:href="#DejaVuSans-6f" x="254.337891"/>
     <use xlink:href="#DejaVuSans-72" x="315.519531"/>
     <use xlink:href="#DejaVuSans-63" x="354.382812"/>
     <use xlink:href="#DejaVuSans-68" x="409.363281"/>
     <use xlink:href="#DejaVuSans-20" x="472.742188"/>
     <use xlink:href="#DejaVuSans-32" x="504.529297"/>
     <use xlink:href="#DejaVuSans-2e" x="568.152344"/>
     <use xlink:href="#DejaVuSans-37" x="599.939453"/>
     <use xlink:href="#DejaVuSans-2e" x="663.5625"/>
     <use xlink:href="#DejaVuSans-30" x="695.349609"/>
    </g>
   </g>
   <g id="text_10">
    <!-- • CUDA 12.8 -->
    <g style="fill: #f3eeff" transform="translate(332.28 156.3876)scale(0.1 -0.1)">
     <defs>
      <path id="DejaVuSans-43" d="M 4122 4306 
L 4122 3641 
Q 3803 3938 3442 4084 
Q 3081 4231 2675 4231 
Q 1875 4231 1450 3742 
Q 1025 3253 1025 2328 
Q 1025 1406 1450 917 
Q 1875 428 2675 428 
Q 3081 428 3442 575 
Q 3803 722 4122 1019 
L 4122 359 
Q 3791 134 3420 21 
Q 3050 -91 2638 -91 
Q 1578 -91 968 557 
Q 359 1206 359 2328 
Q 359 3453 968 4101 
Q 1578 4750 2638 4750 
Q 3056 4750 3426 4639 
Q 3797 4528 4122 4306 
z
" transform="scale(0.015625)"/>
      <path id="DejaVuSans-31" d="M 794 531 
L 1825 531 
L 1825 4091 
L 703 3866 
L 703 4441 
L 1819 4666 
L 2450 4666 
L 2450 531 
L 3481 531 
L 3481 0 
L 794 0 
L 794 531 
z
" transform="scale(0.015625)"/>
     </defs>
     <use xlink:href="#DejaVuSans-2022"/>
     <use xlink:href="#DejaVuSans-20" x="58.984375"/>
     <use xlink:href="#DejaVuSans-43" x="90.771484"/>
     <use xlink:href="#DejaVuSans-55" x="160.595703"/>
     <use xlink:href="#DejaVuSans-44" x="233.789062"/>
     <use xlink:href="#DejaVuSans-41" x="309.041016"/>
     <use xlink:href="#DejaVuSans-20" x="377.449219"/>
     <use xlink:href="#DejaVuSans-31" x="409.236328"/>
     <use xlink:href="#DejaVuSans-32" x="472.859375"/>
     <use xlink:href="#DejaVuSans-2e" x="536.482422"/>
     <use xlink:href="#DejaVuSans-38" x="568.269531"/>
    </g>
   </g>
   <g id="text_11">
    <!-- • cuDNN 9.8 -->
    <g style="fill: #f3eeff" transform="translate(332.28 174.57192)scale(0.1 -0.1)">
     <use xlink:href="#DejaVuSans-2022"/>
     <use xlink:href="#DejaVuSans-20" x="58.984375"/>
     <use xlink:href="#DejaVuSans-63" x="90.771484"/>
     <use xlink:href="#DejaVuSans-75" x="145.751953"/>
     <use xlink:href="#DejaVuSans-44" x="209.130859"/>
     <use xlink:href="#DejaVuSans-4e" x="286.132812"/>
     <use xlink:href="#DejaVuSans-4e" x="360.9375"/>
     <use xlink:href="#DejaVuSans-20" x="435.742188"/>
     <use xlink:href="#DejaVuSans-39" x="467.529297"/>
     <use xlink:href="#DejaVuSans-2e" x="531.152344"/>
     <use xlink:href="#DejaVuSans-38" x="562.939453"/>
    </g>
   </g>
   <g id="text_12">
    <!-- • single GPU / world size 1 -->
    <g style="fill: #f3eeff" transform="translate(332.28 192.75624)scale(0.1 -0.1)">
     <defs>
      <path id="DejaVuSans-77" d="M 269 3500 
L 844 3500 
L 1563 769 
L 2278 3500 
L 2956 3500 
L 3675 769 
L 4391 3500 
L 4966 3500 
L 4050 0 
L 3372 0 
L 2619 2869 
L 1863 0 
L 1184 0 
L 269 3500 
z
" transform="scale(0.015625)"/>
     </defs>
     <use xlink:href="#DejaVuSans-2022"/>
     <use xlink:href="#DejaVuSans-20" x="58.984375"/>
     <use xlink:href="#DejaVuSans-73" x="90.771484"/>
     <use xlink:href="#DejaVuSans-69" x="142.871094"/>
     <use xlink:href="#DejaVuSans-6e" x="170.654297"/>
     <use xlink:href="#DejaVuSans-67" x="234.033203"/>
     <use xlink:href="#DejaVuSans-6c" x="297.509766"/>
     <use xlink:href="#DejaVuSans-65" x="325.292969"/>
     <use xlink:href="#DejaVuSans-20" x="386.816406"/>
     <use xlink:href="#DejaVuSans-47" x="418.603516"/>
     <use xlink:href="#DejaVuSans-50" x="496.09375"/>
     <use xlink:href="#DejaVuSans-55" x="556.396484"/>
     <use xlink:href="#DejaVuSans-20" x="629.589844"/>
     <use xlink:href="#DejaVuSans-2f" x="661.376953"/>
     <use xlink:href="#DejaVuSans-20" x="695.068359"/>
     <use xlink:href="#DejaVuSans-77" x="726.855469"/>
     <use xlink:href="#DejaVuSans-6f" x="808.642578"/>
     <use xlink:href="#DejaVuSans-72" x="869.824219"/>
     <use xlink:href="#DejaVuSans-6c" x="910.9375"/>
     <use xlink:href="#DejaVuSans-64" x="938.720703"/>
     <use xlink:href="#DejaVuSans-20" x="1002.197266"/>
     <use xlink:href="#DejaVuSans-73" x="1033.984375"/>
     <use xlink:href="#DejaVuSans-69" x="1086.083984"/>
     <use xlink:href="#DejaVuSans-7a" x="1113.867188"/>
     <use xlink:href="#DejaVuSans-65" x="1166.357422"/>
     <use xlink:href="#DejaVuSans-20" x="1227.880859"/>
     <use xlink:href="#DejaVuSans-31" x="1259.667969"/>
    </g>
   </g>
   <g id="text_13">
    <!-- Runtime -->
    <g style="fill: #d9ccff" transform="translate(587.1465 115.47288)scale(0.12 -0.12)">
     <defs>
      <path id="DejaVuSans-Bold-52" d="M 2297 2597 
Q 2675 2597 2839 2737 
Q 3003 2878 3003 3200 
Q 3003 3519 2839 3656 
Q 2675 3794 2297 3794 
L 1791 3794 
L 1791 2597 
L 2297 2597 
z
M 1791 1766 
L 1791 0 
L 588 0 
L 588 4666 
L 2425 4666 
Q 3347 4666 3776 4356 
Q 4206 4047 4206 3378 
Q 4206 2916 3982 2619 
Q 3759 2322 3309 2181 
Q 3556 2125 3751 1926 
Q 3947 1728 4147 1325 
L 4800 0 
L 3519 0 
L 2950 1159 
Q 2778 1509 2601 1637 
Q 2425 1766 2131 1766 
L 1791 1766 
z
" transform="scale(0.015625)"/>
     </defs>
     <use xlink:href="#DejaVuSans-Bold-52"/>
     <use xlink:href="#DejaVuSans-Bold-75" x="77.001953"/>
     <use xlink:href="#DejaVuSans-Bold-6e" x="148.193359"/>
     <use xlink:href="#DejaVuSans-Bold-74" x="219.384766"/>
     <use xlink:href="#DejaVuSans-Bold-69" x="267.1875"/>
     <use xlink:href="#DejaVuSans-Bold-6d" x="301.464844"/>
     <use xlink:href="#DejaVuSans-Bold-65" x="405.664062"/>
    </g>
   </g>
   <g id="text_14">
    <!-- • BF16 autocast -->
    <g style="fill: #f3eeff" transform="translate(591.192 138.20328)scale(0.1 -0.1)">
     <use xlink:href="#DejaVuSans-2022"/>
     <use xlink:href="#DejaVuSans-20" x="58.984375"/>
     <use xlink:href="#DejaVuSans-42" x="90.771484"/>
     <use xlink:href="#DejaVuSans-46" x="159.375"/>
     <use xlink:href="#DejaVuSans-31" x="216.894531"/>
     <use xlink:href="#DejaVuSans-36" x="280.517578"/>
     <use xlink:href="#DejaVuSans-20" x="344.140625"/>
     <use xlink:href="#DejaVuSans-61" x="375.927734"/>
     <use xlink:href="#DejaVuSans-75" x="437.207031"/>
     <use xlink:href="#DejaVuSans-74" x="500.585938"/>
     <use xlink:href="#DejaVuSans-6f" x="539.794922"/>
     <use xlink:href="#DejaVuSans-63" x="600.976562"/>
     <use xlink:href="#DejaVuSans-61" x="655.957031"/>
     <use xlink:href="#DejaVuSans-73" x="717.236328"/>
     <use xlink:href="#DejaVuSans-74" x="769.335938"/>
    </g>
   </g>
   <g id="text_15">
    <!-- • no torch.compile -->
    <g style="fill: #f3eeff" transform="translate(591.192 156.3876)scale(0.1 -0.1)">
     <defs>
      <path id="DejaVuSans-70" d="M 1159 525 
L 1159 -1331 
L 581 -1331 
L 581 3500 
L 1159 3500 
L 1159 2969 
Q 1341 3281 1617 3432 
Q 1894 3584 2278 3584 
Q 2916 3584 3314 3078 
Q 3713 2572 3713 1747 
Q 3713 922 3314 415 
Q 2916 -91 2278 -91 
Q 1894 -91 1617 61 
Q 1341 213 1159 525 
z
M 3116 1747 
Q 3116 2381 2855 2742 
Q 2594 3103 2138 3103 
Q 1681 3103 1420 2742 
Q 1159 2381 1159 1747 
Q 1159 1113 1420 752 
Q 1681 391 2138 391 
Q 2594 391 2855 752 
Q 3116 1113 3116 1747 
z
" transform="scale(0.015625)"/>
     </defs>
     <use xlink:href="#DejaVuSans-2022"/>
     <use xlink:href="#DejaVuSans-20" x="58.984375"/>
     <use xlink:href="#DejaVuSans-6e" x="90.771484"/>
     <use xlink:href="#DejaVuSans-6f" x="154.150391"/>
     <use xlink:href="#DejaVuSans-20" x="215.332031"/>
     <use xlink:href="#DejaVuSans-74" x="247.119141"/>
     <use xlink:href="#DejaVuSans-6f" x="286.328125"/>
     <use xlink:href="#DejaVuSans-72" x="347.509766"/>
     <use xlink:href="#DejaVuSans-63" x="386.373047"/>
     <use xlink:href="#DejaVuSans-68" x="441.353516"/>
     <use xlink:href="#DejaVuSans-2e" x="504.732422"/>
     <use xlink:href="#DejaVuSans-63" x="536.519531"/>
     <use xlink:href="#DejaVuSans-6f" x="591.5"/>
     <use xlink:href="#DejaVuSans-6d" x="652.681641"/>
     <use xlink:href="#DejaVuSans-70" x="750.09375"/>
     <use xlink:href="#DejaVuSans-69" x="813.570312"/>
     <use xlink:href="#DejaVuSans-6c" x="841.353516"/>
     <use xlink:href="#DejaVuSans-65" x="869.136719"/>
    </g>
   </g>
   <g id="text_16">
    <!-- • no fused AdamW -->
    <g style="fill: #f3eeff" transform="translate(591.192 174.57192)scale(0.1 -0.1)">
     <defs>
      <path id="DejaVuSans-57" d="M 213 4666 
L 850 4666 
L 1831 722 
L 2809 4666 
L 3519 4666 
L 4500 722 
L 5478 4666 
L 6119 4666 
L 4947 0 
L 4153 0 
L 3169 4050 
L 2175 0 
L 1381 0 
L 213 4666 
z
" transform="scale(0.015625)"/>
     </defs>
     <use xlink:href="#DejaVuSans-2022"/>
     <use xlink:href="#DejaVuSans-20" x="58.984375"/>
     <use xlink:href="#DejaVuSans-6e" x="90.771484"/>
     <use xlink:href="#DejaVuSans-6f" x="154.150391"/>
     <use xlink:href="#DejaVuSans-20" x="215.332031"/>
     <use xlink:href="#DejaVuSans-66" x="247.119141"/>
     <use xlink:href="#DejaVuSans-75" x="282.324219"/>
     <use xlink:href="#DejaVuSans-73" x="345.703125"/>
     <use xlink:href="#DejaVuSans-65" x="397.802734"/>
     <use xlink:href="#DejaVuSans-64" x="459.326172"/>
     <use xlink:href="#DejaVuSans-20" x="522.802734"/>
     <use xlink:href="#DejaVuSans-41" x="554.589844"/>
     <use xlink:href="#DejaVuSans-64" x="621.248047"/>
     <use xlink:href="#DejaVuSans-61" x="684.724609"/>
     <use xlink:href="#DejaVuSans-6d" x="746.003906"/>
     <use xlink:href="#DejaVuSans-57" x="843.416016"/>
    </g>
   </g>
   <g id="text_17">
    <!-- • no gradient checkpointing -->
    <g style="fill: #f3eeff" transform="translate(591.192 192.75624)scale(0.1 -0.1)">
     <defs>
      <path id="DejaVuSans-6b" d="M 581 4863 
L 1159 4863 
L 1159 1991 
L 2875 3500 
L 3609 3500 
L 1753 1863 
L 3688 0 
L 2938 0 
L 1159 1709 
L 1159 0 
L 581 0 
L 581 4863 
z
" transform="scale(0.015625)"/>
     </defs>
     <use xlink:href="#DejaVuSans-2022"/>
     <use xlink:href="#DejaVuSans-20" x="58.984375"/>
     <use xlink:href="#DejaVuSans-6e" x="90.771484"/>
     <use xlink:href="#DejaVuSans-6f" x="154.150391"/>
     <use xlink:href="#DejaVuSans-20" x="215.332031"/>
     <use xlink:href="#DejaVuSans-67" x="247.119141"/>
     <use xlink:href="#DejaVuSans-72" x="310.595703"/>
     <use xlink:href="#DejaVuSans-61" x="351.708984"/>
     <use xlink:href="#DejaVuSans-64" x="412.988281"/>
     <use xlink:href="#DejaVuSans-69" x="476.464844"/>
     <use xlink:href="#DejaVuSans-65" x="504.248047"/>
     <use xlink:href="#DejaVuSans-6e" x="565.771484"/>
     <use xlink:href="#DejaVuSans-74" x="629.150391"/>
     <use xlink:href="#DejaVuSans-20" x="668.359375"/>
     <use xlink:href="#DejaVuSans-63" x="700.146484"/>
     <use xlink:href="#DejaVuSans-68" x="755.126953"/>
     <use xlink:href="#DejaVuSans-65" x="818.505859"/>
     <use xlink:href="#DejaVuSans-63" x="880.029297"/>
     <use xlink:href="#DejaVuSans-6b" x="935.009766"/>
     <use xlink:href="#DejaVuSans-70" x="992.919922"/>
     <use xlink:href="#DejaVuSans-6f" x="1056.396484"/>
     <use xlink:href="#DejaVuSans-69" x="1117.578125"/>
     <use xlink:href="#DejaVuSans-6e" x="1145.361328"/>
     <use xlink:href="#DejaVuSans-74" x="1208.740234"/>
     <use xlink:href="#DejaVuSans-69" x="1247.949219"/>
     <use xlink:href="#DejaVuSans-6e" x="1275.732422"/>
     <use xlink:href="#DejaVuSans-67" x="1339.111328"/>
    </g>
   </g>
   <g id="text_18">
    <!-- Batching &amp; cache -->
    <g style="fill: #d9ccff" transform="translate(198.7785 297.31608)scale(0.12 -0.12)">
     <defs>
      <path id="DejaVuSans-Bold-42" d="M 2456 2859 
Q 2741 2859 2887 2984 
Q 3034 3109 3034 3353 
Q 3034 3594 2887 3720 
Q 2741 3847 2456 3847 
L 1791 3847 
L 1791 2859 
L 2456 2859 
z
M 2497 819 
Q 2859 819 3042 972 
Q 3225 1125 3225 1434 
Q 3225 1738 3044 1889 
Q 2863 2041 2497 2041 
L 1791 2041 
L 1791 819 
L 2497 819 
z
M 3616 2497 
Q 4003 2384 4215 2081 
Q 4428 1778 4428 1338 
Q 4428 663 3972 331 
Q 3516 0 2584 0 
L 588 0 
L 588 4666 
L 2394 4666 
Q 3366 4666 3802 4372 
Q 4238 4078 4238 3431 
Q 4238 3091 4078 2852 
Q 3919 2613 3616 2497 
z
" transform="scale(0.015625)"/>
      <path id="DejaVuSans-Bold-68" d="M 4056 2131 
L 4056 0 
L 2931 0 
L 2931 347 
L 2931 1625 
Q 2931 2084 2911 2256 
Q 2891 2428 2841 2509 
Q 2775 2619 2662 2680 
Q 2550 2741 2406 2741 
Q 2056 2741 1856 2470 
Q 1656 2200 1656 1722 
L 1656 0 
L 538 0 
L 538 4863 
L 1656 4863 
L 1656 2988 
Q 1909 3294 2193 3439 
Q 2478 3584 2822 3584 
Q 3428 3584 3742 3212 
Q 4056 2841 4056 2131 
z
" transform="scale(0.015625)"/>
      <path id="DejaVuSans-Bold-26" d="M 2497 3097 
L 3775 1691 
Q 3941 1909 4027 2181 
Q 4113 2453 4128 2797 
L 5100 2797 
Q 5053 2228 4879 1784 
Q 4706 1341 4397 1006 
L 5313 0 
L 3988 0 
L 3681 341 
Q 3353 122 2990 15 
Q 2628 -91 2222 -91 
Q 1400 -91 892 342 
Q 384 775 384 1459 
Q 384 1916 607 2267 
Q 831 2619 1338 2950 
Q 1206 3116 1143 3281 
Q 1081 3447 1081 3628 
Q 1081 4138 1478 4444 
Q 1875 4750 2534 4750 
Q 2819 4750 3126 4704 
Q 3434 4659 3769 4569 
L 3769 3700 
Q 3475 3850 3212 3922 
Q 2950 3994 2700 3994 
Q 2459 3994 2326 3901 
Q 2194 3809 2194 3641 
Q 2194 3534 2270 3398 
Q 2347 3263 2497 3097 
z
M 1875 2322 
Q 1672 2175 1569 1989 
Q 1466 1803 1466 1581 
Q 1466 1222 1731 969 
Q 1997 716 2369 716 
Q 2578 716 2759 780 
Q 2941 844 3097 972 
L 1875 2322 
z
" transform="scale(0.015625)"/>
     </defs>
     <use xlink:href="#DejaVuSans-Bold-42"/>
     <use xlink:href="#DejaVuSans-Bold-61" x="76.220703"/>
     <use xlink:href="#DejaVuSans-Bold-74" x="143.701172"/>
     <use xlink:href="#DejaVuSans-Bold-63" x="191.503906"/>
     <use xlink:href="#DejaVuSans-Bold-68" x="250.78125"/>
     <use xlink:href="#DejaVuSans-Bold-69" x="321.972656"/>
     <use xlink:href="#DejaVuSans-Bold-6e" x="356.25"/>
     <use xlink:href="#DejaVuSans-Bold-67" x="427.441406"/>
     <use xlink:href="#DejaVuSans-Bold-20" x="499.023438"/>
     <use xlink:href="#DejaVuSans-Bold-26" x="533.837891"/>
     <use xlink:href="#DejaVuSans-Bold-20" x="621.044922"/>
     <use xlink:href="#DejaVuSans-Bold-63" x="655.859375"/>
     <use xlink:href="#DejaVuSans-Bold-61" x="715.136719"/>
     <use xlink:href="#DejaVuSans-Bold-63" x="782.617188"/>
     <use xlink:href="#DejaVuSans-Bold-68" x="841.894531"/>
     <use xlink:href="#DejaVuSans-Bold-65" x="913.085938"/>
    </g>
   </g>
   <g id="text_19">
    <!-- • microbatch 1 -->
    <g style="fill: #f3eeff" transform="translate(202.824 320.04648)scale(0.1 -0.1)">
     <use xlink:href="#DejaVuSans-2022"/>
     <use xlink:href="#DejaVuSans-20" x="58.984375"/>
     <use xlink:href="#DejaVuSans-6d" x="90.771484"/>
     <use xlink:href="#DejaVuSans-69" x="188.183594"/>
     <use xlink:href="#DejaVuSans-63" x="215.966797"/>
     <use xlink:href="#DejaVuSans-72" x="270.947266"/>
     <use xlink:href="#DejaVuSans-6f" x="309.810547"/>
     <use xlink:href="#DejaVuSans-62" x="370.992188"/>
     <use xlink:href="#DejaVuSans-61" x="434.46875"/>
     <use xlink:href="#DejaVuSans-74" x="495.748047"/>
     <use xlink:href="#DejaVuSans-63" x="534.957031"/>
     <use xlink:href="#DejaVuSans-68" x="589.9375"/>
     <use xlink:href="#DejaVuSans-20" x="653.316406"/>
     <use xlink:href="#DejaVuSans-31" x="685.103516"/>
    </g>
   </g>
   <g id="text_20">
    <!-- • gradient accumulation 32 -->
    <g style="fill: #f3eeff" transform="translate(202.824 338.2308)scale(0.1 -0.1)">
     <defs>
      <path id="DejaVuSans-33" d="M 2597 2516 
Q 3050 2419 3304 2112 
Q 3559 1806 3559 1356 
Q 3559 666 3084 287 
Q 2609 -91 1734 -91 
Q 1441 -91 1130 -33 
Q 819 25 488 141 
L 488 750 
Q 750 597 1062 519 
Q 1375 441 1716 441 
Q 2309 441 2620 675 
Q 2931 909 2931 1356 
Q 2931 1769 2642 2001 
Q 2353 2234 1838 2234 
L 1294 2234 
L 1294 2753 
L 1863 2753 
Q 2328 2753 2575 2939 
Q 2822 3125 2822 3475 
Q 2822 3834 2567 4026 
Q 2313 4219 1838 4219 
Q 1578 4219 1281 4162 
Q 984 4106 628 3988 
L 628 4550 
Q 988 4650 1302 4700 
Q 1616 4750 1894 4750 
Q 2613 4750 3031 4423 
Q 3450 4097 3450 3541 
Q 3450 3153 3228 2886 
Q 3006 2619 2597 2516 
z
" transform="scale(0.015625)"/>
     </defs>
     <use xlink:href="#DejaVuSans-2022"/>
     <use xlink:href="#DejaVuSans-20" x="58.984375"/>
     <use xlink:href="#DejaVuSans-67" x="90.771484"/>
     <use xlink:href="#DejaVuSans-72" x="154.248047"/>
     <use xlink:href="#DejaVuSans-61" x="195.361328"/>
     <use xlink:href="#DejaVuSans-64" x="256.640625"/>
     <use xlink:href="#DejaVuSans-69" x="320.117188"/>
     <use xlink:href="#DejaVuSans-65" x="347.900391"/>
     <use xlink:href="#DejaVuSans-6e" x="409.423828"/>
     <use xlink:href="#DejaVuSans-74" x="472.802734"/>
     <use xlink:href="#DejaVuSans-20" x="512.011719"/>
     <use xlink:href="#DejaVuSans-61" x="543.798828"/>
     <use xlink:href="#DejaVuSans-63" x="605.078125"/>
     <use xlink:href="#DejaVuSans-63" x="660.058594"/>
     <use xlink:href="#DejaVuSans-75" x="715.039062"/>
     <use xlink:href="#DejaVuSans-6d" x="778.417969"/>
     <use xlink:href="#DejaVuSans-75" x="875.830078"/>
     <use xlink:href="#DejaVuSans-6c" x="939.208984"/>
     <use xlink:href="#DejaVuSans-61" x="966.992188"/>
     <use xlink:href="#DejaVuSans-74" x="1028.271484"/>
     <use xlink:href="#DejaVuSans-69" x="1067.480469"/>
     <use xlink:href="#DejaVuSans-6f" x="1095.263672"/>
     <use xlink:href="#DejaVuSans-6e" x="1156.445312"/>
     <use xlink:href="#DejaVuSans-20" x="1219.824219"/>
     <use xlink:href="#DejaVuSans-33" x="1251.611328"/>
     <use xlink:href="#DejaVuSans-32" x="1315.234375"/>
    </g>
   </g>
   <g id="text_21">
    <!-- • effective batch 32 -->
    <g style="fill: #f3eeff" transform="translate(202.824 356.41512)scale(0.1 -0.1)">
     <use xlink:href="#DejaVuSans-2022"/>
     <use xlink:href="#DejaVuSans-20" x="58.984375"/>
     <use xlink:href="#DejaVuSans-65" x="90.771484"/>
     <use xlink:href="#DejaVuSans-66" x="152.294922"/>
     <use xlink:href="#DejaVuSans-66" x="187.5"/>
     <use xlink:href="#DejaVuSans-65" x="222.705078"/>
     <use xlink:href="#DejaVuSans-63" x="284.228516"/>
     <use xlink:href="#DejaVuSans-74" x="339.208984"/>
     <use xlink:href="#DejaVuSans-69" x="378.417969"/>
     <use xlink:href="#DejaVuSans-76" x="406.201172"/>
     <use xlink:href="#DejaVuSans-65" x="465.380859"/>
     <use xlink:href="#DejaVuSans-20" x="526.904297"/>
     <use xlink:href="#DejaVuSans-62" x="558.691406"/>
     <use xlink:href="#DejaVuSans-61" x="622.167969"/>
     <use xlink:href="#DejaVuSans-74" x="683.447266"/>
     <use xlink:href="#DejaVuSans-63" x="722.65625"/>
     <use xlink:href="#DejaVuSans-68" x="777.636719"/>
     <use xlink:href="#DejaVuSans-20" x="841.015625"/>
     <use xlink:href="#DejaVuSans-33" x="872.802734"/>
     <use xlink:href="#DejaVuSans-32" x="936.425781"/>
    </g>
   </g>
   <g id="text_22">
    <!-- • cached text + VAE latents on NFS -->
    <g style="fill: #f3eeff" transform="translate(202.824 374.59944)scale(0.1 -0.1)">
     <defs>
      <path id="DejaVuSans-78" d="M 3513 3500 
L 2247 1797 
L 3578 0 
L 2900 0 
L 1881 1375 
L 863 0 
L 184 0 
L 1544 1831 
L 300 3500 
L 978 3500 
L 1906 2253 
L 2834 3500 
L 3513 3500 
z
" transform="scale(0.015625)"/>
      <path id="DejaVuSans-2b" d="M 2944 4013 
L 2944 2272 
L 4684 2272 
L 4684 1741 
L 2944 1741 
L 2944 0 
L 2419 0 
L 2419 1741 
L 678 1741 
L 678 2272 
L 2419 2272 
L 2419 4013 
L 2944 4013 
z
" transform="scale(0.015625)"/>
      <path id="DejaVuSans-45" d="M 628 4666 
L 3578 4666 
L 3578 4134 
L 1259 4134 
L 1259 2753 
L 3481 2753 
L 3481 2222 
L 1259 2222 
L 1259 531 
L 3634 531 
L 3634 0 
L 628 0 
L 628 4666 
z
" transform="scale(0.015625)"/>
      <path id="DejaVuSans-53" d="M 3425 4513 
L 3425 3897 
Q 3066 4069 2747 4153 
Q 2428 4238 2131 4238 
Q 1616 4238 1336 4038 
Q 1056 3838 1056 3469 
Q 1056 3159 1242 3001 
Q 1428 2844 1947 2747 
L 2328 2669 
Q 3034 2534 3370 2195 
Q 3706 1856 3706 1288 
Q 3706 609 3251 259 
Q 2797 -91 1919 -91 
Q 1588 -91 1214 -16 
Q 841 59 441 206 
L 441 856 
Q 825 641 1194 531 
Q 1563 422 1919 422 
Q 2459 422 2753 634 
Q 3047 847 3047 1241 
Q 3047 1584 2836 1778 
Q 2625 1972 2144 2069 
L 1759 2144 
Q 1053 2284 737 2584 
Q 422 2884 422 3419 
Q 422 4038 858 4394 
Q 1294 4750 2059 4750 
Q 2388 4750 2728 4690 
Q 3069 4631 3425 4513 
z
" transform="scale(0.015625)"/>
     </defs>
     <use xlink:href="#DejaVuSans-2022"/>
     <use xlink:href="#DejaVuSans-20" x="58.984375"/>
     <use xlink:href="#DejaVuSans-63" x="90.771484"/>
     <use xlink:href="#DejaVuSans-61" x="145.751953"/>
     <use xlink:href="#DejaVuSans-63" x="207.03125"/>
     <use xlink:href="#DejaVuSans-68" x="262.011719"/>
     <use xlink:href="#DejaVuSans-65" x="325.390625"/>
     <use xlink:href="#DejaVuSans-64" x="386.914062"/>
     <use xlink:href="#DejaVuSans-20" x="450.390625"/>
     <use xlink:href="#DejaVuSans-74" x="482.177734"/>
     <use xlink:href="#DejaVuSans-65" x="521.386719"/>
     <use xlink:href="#DejaVuSans-78" x="581.160156"/>
     <use xlink:href="#DejaVuSans-74" x="640.339844"/>
     <use xlink:href="#DejaVuSans-20" x="679.548828"/>
     <use xlink:href="#DejaVuSans-2b" x="711.335938"/>
     <use xlink:href="#DejaVuSans-20" x="795.125"/>
     <use xlink:href="#DejaVuSans-56" x="826.912109"/>
     <use xlink:href="#DejaVuSans-41" x="888.945312"/>
     <use xlink:href="#DejaVuSans-45" x="957.353516"/>
     <use xlink:href="#DejaVuSans-20" x="1020.537109"/>
     <use xlink:href="#DejaVuSans-6c" x="1052.324219"/>
     <use xlink:href="#DejaVuSans-61" x="1080.107422"/>
     <use xlink:href="#DejaVuSans-74" x="1141.386719"/>
     <use xlink:href="#DejaVuSans-65" x="1180.595703"/>
     <use xlink:href="#DejaVuSans-6e" x="1242.119141"/>
     <use xlink:href="#DejaVuSans-74" x="1305.498047"/>
     <use xlink:href="#DejaVuSans-73" x="1344.707031"/>
     <use xlink:href="#DejaVuSans-20" x="1396.806641"/>
     <use xlink:href="#DejaVuSans-6f" x="1428.59375"/>
     <use xlink:href="#DejaVuSans-6e" x="1489.775391"/>
     <use xlink:href="#DejaVuSans-20" x="1553.154297"/>
     <use xlink:href="#DejaVuSans-4e" x="1584.941406"/>
     <use xlink:href="#DejaVuSans-46" x="1659.746094"/>
     <use xlink:href="#DejaVuSans-53" x="1715.515625"/>
    </g>
   </g>
   <g id="text_23">
    <!-- “480GB” is the PyTorch-reported device/product name, not an HBM-capacity claim. -->
    <g style="fill: #b9b0cc" transform="translate(32.913 440.5176)scale(0.09 -0.09)">
     <defs>
      <path id="DejaVuSans-201c" d="M 1203 3128 
L 544 3128 
L 544 3669 
L 1056 4666 
L 1459 4666 
L 1203 3669 
L 1203 3128 
z
M 2484 3128 
L 1825 3128 
L 1825 3669 
L 2338 4666 
L 2741 4666 
L 2484 3669 
L 2484 3128 
z
" transform="scale(0.015625)"/>
      <path id="DejaVuSans-201d" d="M 800 4666 
L 1459 4666 
L 1459 4128 
L 947 3128 
L 544 3128 
L 800 4128 
L 800 4666 
z
M 2081 4666 
L 2741 4666 
L 2741 4128 
L 2228 3128 
L 1825 3128 
L 2081 4128 
L 2081 4666 
z
" transform="scale(0.015625)"/>
      <path id="DejaVuSans-2c" d="M 750 794 
L 1409 794 
L 1409 256 
L 897 -744 
L 494 -744 
L 750 256 
L 750 794 
z
" transform="scale(0.015625)"/>
     </defs>
     <use xlink:href="#DejaVuSans-201c"/>
     <use xlink:href="#DejaVuSans-34" x="51.806641"/>
     <use xlink:href="#DejaVuSans-38" x="115.429688"/>
     <use xlink:href="#DejaVuSans-30" x="179.052734"/>
     <use xlink:href="#DejaVuSans-47" x="242.675781"/>
     <use xlink:href="#DejaVuSans-42" x="320.166016"/>
     <use xlink:href="#DejaVuSans-201d" x="383.269531"/>
     <use xlink:href="#DejaVuSans-20" x="435.076172"/>
     <use xlink:href="#DejaVuSans-69" x="466.863281"/>
     <use xlink:href="#DejaVuSans-73" x="494.646484"/>
     <use xlink:href="#DejaVuSans-20" x="546.746094"/>
     <use xlink:href="#DejaVuSans-74" x="578.533203"/>
     <use xlink:href="#DejaVuSans-68" x="617.742188"/>
     <use xlink:href="#DejaVuSans-65" x="681.121094"/>
     <use xlink:href="#DejaVuSans-20" x="742.644531"/>
     <use xlink:href="#DejaVuSans-50" x="774.431641"/>
     <use xlink:href="#DejaVuSans-79" x="834.734375"/>
     <use xlink:href="#DejaVuSans-54" x="893.914062"/>
     <use xlink:href="#DejaVuSans-6f" x="937.998047"/>
     <use xlink:href="#DejaVuSans-72" x="999.179688"/>
     <use xlink:href="#DejaVuSans-63" x="1038.042969"/>
     <use xlink:href="#DejaVuSans-68" x="1093.023438"/>
     <use xlink:href="#DejaVuSans-2d" x="1156.402344"/>
     <use xlink:href="#DejaVuSans-72" x="1192.486328"/>
     <use xlink:href="#DejaVuSans-65" x="1231.349609"/>
     <use xlink:href="#DejaVuSans-70" x="1292.873047"/>
     <use xlink:href="#DejaVuSans-6f" x="1356.349609"/>
     <use xlink:href="#DejaVuSans-72" x="1417.53125"/>
     <use xlink:href="#DejaVuSans-74" x="1458.644531"/>
     <use xlink:href="#DejaVuSans-65" x="1497.853516"/>
     <use xlink:href="#DejaVuSans-64" x="1559.376953"/>
     <use xlink:href="#DejaVuSans-20" x="1622.853516"/>
     <use xlink:href="#DejaVuSans-64" x="1654.640625"/>
     <use xlink:href="#DejaVuSans-65" x="1718.117188"/>
     <use xlink:href="#DejaVuSans-76" x="1779.640625"/>
     <use xlink:href="#DejaVuSans-69" x="1838.820312"/>
     <use xlink:href="#DejaVuSans-63" x="1866.603516"/>
     <use xlink:href="#DejaVuSans-65" x="1921.583984"/>
     <use xlink:href="#DejaVuSans-2f" x="1983.107422"/>
     <use xlink:href="#DejaVuSans-70" x="2016.798828"/>
     <use xlink:href="#DejaVuSans-72" x="2080.275391"/>
     <use xlink:href="#DejaVuSans-6f" x="2119.138672"/>
     <use xlink:href="#DejaVuSans-64" x="2180.320312"/>
     <use xlink:href="#DejaVuSans-75" x="2243.796875"/>
     <use xlink:href="#DejaVuSans-63" x="2307.175781"/>
     <use xlink:href="#DejaVuSans-74" x="2362.15625"/>
     <use xlink:href="#DejaVuSans-20" x="2401.365234"/>
     <use xlink:href="#DejaVuSans-6e" x="2433.152344"/>
     <use xlink:href="#DejaVuSans-61" x="2496.53125"/>
     <use xlink:href="#DejaVuSans-6d" x="2557.810547"/>
     <use xlink:href="#DejaVuSans-65" x="2655.222656"/>
     <use xlink:href="#DejaVuSans-2c" x="2716.746094"/>
     <use xlink:href="#DejaVuSans-20" x="2748.533203"/>
     <use xlink:href="#DejaVuSans-6e" x="2780.320312"/>
     <use xlink:href="#DejaVuSans-6f" x="2843.699219"/>
     <use xlink:href="#DejaVuSans-74" x="2904.880859"/>
     <use xlink:href="#DejaVuSans-20" x="2944.089844"/>
     <use xlink:href="#DejaVuSans-61" x="2975.876953"/>
     <use xlink:href="#DejaVuSans-6e" x="3037.15625"/>
     <use xlink:href="#DejaVuSans-20" x="3100.535156"/>
     <use xlink:href="#DejaVuSans-48" x="3132.322266"/>
     <use xlink:href="#DejaVuSans-42" x="3207.517578"/>
     <use xlink:href="#DejaVuSans-4d" x="3276.121094"/>
     <use xlink:href="#DejaVuSans-2d" x="3362.400391"/>
     <use xlink:href="#DejaVuSans-63" x="3398.484375"/>
     <use xlink:href="#DejaVuSans-61" x="3453.464844"/>
     <use xlink:href="#DejaVuSans-70" x="3514.744141"/>
     <use xlink:href="#DejaVuSans-61" x="3578.220703"/>
     <use xlink:href="#DejaVuSans-63" x="3639.5"/>
     <use xlink:href="#DejaVuSans-69" x="3694.480469"/>
     <use xlink:href="#DejaVuSans-74" x="3722.263672"/>
     <use xlink:href="#DejaVuSans-79" x="3761.472656"/>
     <use xlink:href="#DejaVuSans-20" x="3820.652344"/>
     <use xlink:href="#DejaVuSans-63" x="3852.439453"/>
     <use xlink:href="#DejaVuSans-6c" x="3907.419922"/>
     <use xlink:href="#DejaVuSans-61" x="3935.203125"/>
     <use xlink:href="#DejaVuSans-69" x="3996.482422"/>
     <use xlink:href="#DejaVuSans-6d" x="4024.265625"/>
     <use xlink:href="#DejaVuSans-2e" x="4121.677734"/>
    </g>
   </g>
  </g>
 </g>
 <defs>
  <clipPath id="pb0a18eb905">
   <rect x="8.64" y="8.64" width="809.1" height="454.608"/>
  </clipPath>
 </defs>
</svg>
